<svg width="793.701" height="793.701" viewBox="0 0 210 210" xmlns="http://www.w3.org/2000/svg" xmlns:xlink="http://www.w3.org/1999/xlink" id="svg8" overflow="hidden"><defs id="defs2"></defs><g id="layer1" transform="matrix(1 0 0 1 0 -87)"><path d="M389.887 20.166 374.105 49.8262 365.893 79.5703 344.635 82.3672 329.004 55.7637 306.084 31.1992 292.631 34.8027 285.064 67.5391 284.83 98.3926 265.02 106.598 243.037 84.9473 214.539 67.1504 202.477 74.1133 203.641 107.691 211.4 137.557 194.389 150.609 167.551 135.385 135.418 125.57 125.57 135.418 135.385 167.551 150.609 194.389 137.557 211.4 107.691 203.641 74.1133 202.477 67.1504 214.539 84.9473 243.037 106.598 265.02 98.3926 284.83 67.5391 285.064 34.8027 292.631 31.1992 306.084 55.7637 329.004 82.3672 344.635 79.5703 365.893 49.8262 374.105 20.166 389.887 20.166 403.814 49.8262 419.596 79.5703 427.809 82.3672 449.066 55.7637 464.697 31.1992 487.617 34.8027 501.07 67.5391 508.637 98.3926 508.871 106.598 528.68 84.9473 550.664 67.1504 579.162 74.1133 591.225 107.691 590.061 137.557 582.301 150.609 599.311 135.385 626.15 125.57 658.281 135.418 668.131 167.551 658.316 194.389 643.092 211.4 656.145 203.641 686.01 202.477 719.586 214.539 726.551 243.037 708.754 265.02 687.102 284.83 695.309 285.064 726.162 292.631 758.896 306.084 762.502 329.004 737.936 344.635 711.332 365.893 714.131 374.105 743.873 389.887 773.535 403.814 773.535 419.596 743.873 427.809 714.131 449.066 711.332 464.697 737.936 487.617 762.502 501.07 758.896 508.637 726.162 508.871 695.309 528.68 687.102 550.664 708.754 579.162 726.551 591.225 719.586 590.061 686.01 582.301 656.145 599.311 643.092 626.15 658.316 658.281 668.131 668.131 658.281 658.316 626.15 643.092 599.311 656.145 582.301 686.01 590.061 719.586 591.225 726.551 579.162 708.754 550.664 687.102 528.68 695.309 508.871 726.162 508.637 758.896 501.07 762.502 487.617 737.936 464.697 711.332 449.066 714.131 427.809 743.873 419.596 773.535 403.814 773.535 389.887 743.873 374.105 714.131 365.893 711.332 344.635 737.936 329.004 762.502 306.084 758.896 292.631 726.162 285.064 695.309 284.83 687.102 265.02 708.754 243.037 726.551 214.539 719.586 202.477 686.01 203.641 656.145 211.4 643.092 194.389 658.316 167.551 668.131 135.418 658.281 125.57 626.15 135.385 599.311 150.609 582.301 137.557 590.061 107.691 591.225 74.1133 579.162 67.1504 550.664 84.9473 528.68 106.598 508.871 98.3926 508.637 67.5391 501.07 34.8027 487.617 31.1992 464.697 55.7637 449.066 82.3672 427.809 79.5703 419.596 49.8262 403.814 20.166 389.887 20.166ZM431.137 136.158C549.094 151.786 641.899 244.604 657.51 362.564L473.732 362.564C465.274 343.587 450.105 328.403 431.137 319.926L431.137 136.158ZM362.564 136.193 362.564 319.971C343.587 328.429 328.403 343.598 319.926 362.566L136.158 362.566C151.786 244.609 244.604 151.804 362.564 136.193ZM396.85 155.422C407.106 155.421 415.421 163.736 415.422 173.992 415.422 173.993 415.422 173.994 415.422 173.994 415.421 184.251 407.106 192.565 396.85 192.564 386.594 192.564 378.28 184.25 378.279 173.994 378.279 163.738 386.593 155.423 396.85 155.422ZM396.85 255.422C407.106 255.421 415.421 263.736 415.422 273.992 415.422 273.993 415.422 273.994 415.422 273.994 415.421 284.251 407.106 292.565 396.85 292.564 386.594 292.564 378.28 284.25 378.279 273.994 378.279 263.738 386.593 255.423 396.85 255.422ZM396.85 346.85C424.464 346.85 446.85 369.235 446.85 396.85 446.85 424.464 424.464 446.85 396.85 446.85 369.235 446.85 346.85 424.464 346.85 396.85 346.85 369.235 369.235 346.85 396.85 346.85ZM173.994 378.279C184.25 378.28 192.564 386.594 192.564 396.85 192.565 407.106 184.251 415.421 173.994 415.422 163.737 415.422 155.422 407.108 155.422 396.851 155.422 396.851 155.422 396.85 155.422 396.85 155.423 386.593 163.738 378.279 173.994 378.279ZM279.707 378.279C289.964 378.279 298.279 386.593 298.279 396.85 298.28 407.106 289.965 415.421 279.709 415.422 279.708 415.422 279.708 415.422 279.707 415.422 269.45 415.421 261.136 407.106 261.137 396.85 261.137 386.594 269.451 378.28 279.707 378.279ZM516.85 378.279C527.106 378.279 535.421 386.593 535.422 396.85 535.422 407.106 527.108 415.421 516.851 415.422 516.851 415.422 516.85 415.422 516.85 415.422 506.593 415.421 498.279 407.106 498.279 396.85 498.28 386.594 506.594 378.28 516.85 378.279ZM619.707 378.279C629.964 378.279 638.279 386.593 638.279 396.85 638.28 407.106 629.965 415.421 619.709 415.422 619.708 415.422 619.708 415.422 619.707 415.422 609.45 415.421 601.136 407.106 601.137 396.85 601.137 386.594 609.451 378.28 619.707 378.279ZM319.969 431.137C328.427 450.114 343.596 465.298 362.564 473.775L362.564 657.545C244.608 641.916 151.804 549.098 136.193 431.139L319.969 431.137ZM473.775 431.139 657.543 431.139C641.914 549.096 549.096 641.9 431.137 657.51L431.137 473.734C450.114 465.276 465.298 450.107 473.775 431.139ZM396.85 501.137C407.106 501.136 415.421 509.45 415.422 519.707 415.422 529.964 407.108 538.279 396.851 538.279 396.851 538.279 396.85 538.279 396.85 538.279 386.593 538.279 378.279 529.964 378.279 519.707 378.28 509.451 386.594 501.137 396.85 501.137ZM396.85 601.137C407.106 601.136 415.421 609.45 415.422 619.707 415.422 629.964 407.108 638.279 396.851 638.279 396.851 638.279 396.85 638.279 396.85 638.279 386.593 638.279 378.279 629.964 378.279 619.707 378.28 609.451 386.594 601.137 396.85 601.137Z" id="path1263" stroke="#000103" stroke-width="7.55906" fill="#710101" transform="matrix(0.264583 0 0 0.264583 0 87)"/></g></svg>